<svg xmlns="http://www.w3.org/2000/svg" width="17" height="17" viewBox="0 0 17 17">
    <defs>
        <style>
            .cls-1{fill:#fff}.cls-2{clip-path:url(#clip-path)}.cls-3{fill:#fcfcfc}
        </style>
        <clipPath id="clip-path">
            <path id="Rectángulo_40" d="M0 0h17v17H0z" class="cls-1" data-name="Rectángulo 40" transform="translate(16.355 729.355)"/>
        </clipPath>
    </defs>
    <g id="Enmascarar_grupo_1" class="cls-2" data-name="Enmascarar grupo 1" transform="translate(-16.355 -729.355)">
        <path id="facebook-square-brands" d="M15.812 2.214H1.9A1.9 1.9 0 0 0 0 4.112v13.914a1.9 1.9 0 0 0 1.9 1.9h5.423V13.9h-2.49v-2.831h2.49v-2.16a3.459 3.459 0 0 1 3.7-3.814 15.087 15.087 0 0 1 2.195.191V7.7h-1.234a1.417 1.417 0 0 0-1.6 1.531v1.84h2.719l-.432 2.829h-2.284v6.021h5.426a1.9 1.9 0 0 0 1.9-1.9V4.112a1.9 1.9 0 0 0-1.9-1.9z" class="cls-3" transform="translate(16 726.786)"/>
    </g>
</svg>
