<svg xmlns="http://www.w3.org/2000/svg" width="17" height="17" viewBox="0 0 17 17">
    <defs>
        <style>
            .cls-1,.cls-3{fill:#fcfcfc}.cls-1{stroke:#707070}.cls-2{clip-path:url(#clip-path)}
        </style>
        <clipPath id="clip-path">
            <path id="Rectángulo_41" d="M0 0h17v17H0z" class="cls-1" data-name="Rectángulo 41" transform="translate(63 731)"/>
        </clipPath>
    </defs>
    <g id="Enmascarar_grupo_2" class="cls-2" data-name="Enmascarar grupo 2" transform="translate(-63 -731)">
        <path id="instagram-brands" d="M8.5 5.347a4.358 4.358 0 1 0 4.358 4.358A4.351 4.351 0 0 0 8.5 5.347zm0 7.191a2.833 2.833 0 1 1 2.833-2.833A2.838 2.838 0 0 1 8.5 12.538zm5.552-7.369a1.016 1.016 0 1 1-1.016-1.016 1.014 1.014 0 0 1 1.015 1.016zM16.937 6.2a5.03 5.03 0 0 0-1.372-3.56A5.063 5.063 0 0 0 12 1.267c-1.4-.08-5.609-.08-7.012 0A5.056 5.056 0 0 0 1.43 2.636 5.046 5.046 0 0 0 .057 6.2c-.08 1.4-.08 5.609 0 7.012a5.03 5.03 0 0 0 1.373 3.559 5.069 5.069 0 0 0 3.561 1.373c1.4.08 5.609.08 7.012 0a5.03 5.03 0 0 0 3.561-1.373 5.063 5.063 0 0 0 1.373-3.561c.08-1.4.08-5.605 0-7.009zm-1.813 8.514a2.868 2.868 0 0 1-1.616 1.616c-1.119.444-3.774.341-5.01.341s-3.895.1-5.01-.341a2.868 2.868 0 0 1-1.616-1.616c-.444-1.119-.341-3.774-.341-5.01s-.1-3.895.341-5.01A2.868 2.868 0 0 1 3.489 3.08c1.119-.444 3.774-.341 5.01-.341s3.895-.1 5.01.341a2.868 2.868 0 0 1 1.616 1.62c.444 1.119.341 3.774.341 5.01s.102 3.89-.341 5.005z" class="cls-3" transform="translate(63.003 729.795)"/>
    </g>
</svg>
